<svg width="1081" height="196" viewBox="0 0 1081 196" fill="none" xmlns="http://www.w3.org/2000/svg">
<path d="M1080.43 44.8078V140.644C1080.43 159.175 1075.87 172.866 1066.74 181.717C1057.75 190.706 1044.13 195.201 1025.88 195.201C1015.78 195.201 1006.17 193.679 997.042 190.637C988.053 187.733 980.724 183.653 975.054 178.398L982.522 167.196C987.777 171.898 994.138 175.563 1001.61 178.191C1009.21 180.818 1017.16 182.132 1025.46 182.132C1039.29 182.132 1049.46 178.882 1055.95 172.382C1062.45 166.021 1065.7 156.064 1065.7 142.511V128.613C1061.14 135.527 1055.13 140.783 1047.66 144.378C1040.33 147.974 1032.17 149.772 1023.18 149.772C1012.95 149.772 1003.61 147.559 995.176 143.134C986.878 138.57 980.309 132.278 975.469 124.257C970.767 116.097 968.416 106.901 968.416 96.6674C968.416 86.4337 970.767 77.3065 975.469 69.2855C980.309 61.2646 986.878 55.0414 995.176 50.6161C1003.47 46.1907 1012.81 43.9781 1023.18 43.9781C1032.45 43.9781 1040.81 45.845 1048.28 49.5789C1055.75 53.3128 1061.76 58.7062 1066.33 65.7591V44.8078H1080.43ZM1024.63 136.703C1032.51 136.703 1039.64 135.043 1046 131.724C1052.36 128.267 1057.27 123.496 1060.73 117.411C1064.32 111.326 1066.12 104.412 1066.12 96.6674C1066.12 88.923 1064.32 82.0775 1060.73 76.131C1057.27 70.0461 1052.36 65.3442 1046 62.0252C1039.77 58.5679 1032.65 56.8392 1024.63 56.8392C1016.75 56.8392 1009.63 58.4987 1003.27 61.8177C997.043 65.1368 992.133 69.8387 988.538 75.9235C985.08 82.0084 983.352 88.923 983.352 96.6674C983.352 104.412 985.08 111.326 988.538 117.411C992.133 123.496 997.043 128.267 1003.27 131.724C1009.63 135.043 1016.75 136.703 1024.63 136.703Z" fill="#47B4C7"/>
<path d="M893.956 154.958C883.446 154.958 873.973 152.607 865.537 147.905C857.101 143.064 850.463 136.426 845.623 127.991C840.782 119.555 838.362 110.013 838.362 99.3641C838.362 88.7156 840.782 79.1734 845.623 70.7376C850.463 62.3018 857.101 55.7329 865.537 51.031C873.973 46.329 883.446 43.9781 893.956 43.9781C904.466 43.9781 913.939 46.329 922.375 51.031C930.811 55.7329 937.379 62.3018 942.081 70.7376C946.922 79.1734 949.342 88.7156 949.342 99.3641C949.342 110.013 946.922 119.555 942.081 127.991C937.379 136.426 930.811 143.064 922.375 147.905C913.939 152.607 904.466 154.958 893.956 154.958ZM893.956 141.889C901.7 141.889 908.615 140.16 914.7 136.703C920.923 133.107 925.763 128.06 929.22 121.56C932.678 115.06 934.406 107.662 934.406 99.3641C934.406 91.0665 932.678 83.6679 929.22 77.1682C925.763 70.6684 920.923 65.6899 914.7 62.2326C908.615 58.637 901.7 56.8392 893.956 56.8392C886.211 56.8392 879.228 58.637 873.004 62.2326C866.92 65.6899 862.079 70.6684 858.484 77.1682C855.027 83.6679 853.298 91.0665 853.298 99.3641C853.298 107.662 855.027 115.06 858.484 121.56C862.079 128.06 866.92 133.107 873.004 136.703C879.228 140.16 886.211 141.889 893.956 141.889Z" fill="#47B4C7"/>
<path d="M818.064 154.956C808.245 154.956 800.639 152.19 795.246 146.659C789.991 141.127 787.363 133.452 787.363 123.633V0H802.091V122.389C802.091 128.888 803.613 133.867 806.655 137.324C809.697 140.643 814.261 142.303 820.346 142.303C824.218 142.303 827.537 141.68 830.303 140.436L831.34 152.675C827.053 154.196 822.628 154.956 818.064 154.956Z" fill="#47B4C7"/>
<path d="M725.569 79.0323C735.111 81.1067 742.441 85.2555 747.558 91.4786C752.813 97.5635 755.44 105.446 755.44 115.127C755.44 127.573 750.807 137.184 741.542 143.961C732.415 150.599 718.862 153.918 700.884 153.918H634.089V8.71078H696.735C712.915 8.71078 725.431 11.9606 734.282 18.4604C743.271 24.9601 747.765 34.1565 747.765 46.0497C747.765 54.0706 745.76 60.9161 741.749 66.5861C737.877 72.1177 732.484 76.2665 725.569 79.0323ZM649.439 21.3645V74.0538H695.698C707.453 74.0538 716.511 71.8411 722.872 67.4158C729.234 62.8522 732.415 56.2833 732.415 47.7092C732.415 39.1351 729.234 32.6353 722.872 28.21C716.511 23.6463 707.453 21.3645 695.698 21.3645H649.439ZM700.676 141.264C713.676 141.264 723.495 139.051 730.133 134.626C736.771 130.2 740.09 123.286 740.09 113.882C740.09 95.7657 726.952 86.7076 700.676 86.7076H649.439V141.264H700.676Z" fill="#47B4C7"/>
<path d="M457.772 153.918V8.71078H504.031V59.948H552.779V8.71078H599.038V153.918H552.779V100.398H504.031V153.918H457.772Z" fill="#47B4C7"/>
<path d="M286.595 153.918L338.662 8.71078H390.314L443.211 153.918H394.67L364.799 55.7993H363.969L334.098 153.918H286.595ZM333.891 133.589V99.7762H395.292V133.589H333.891Z" fill="#47B4C7"/>
<path d="M149.45 153.918V8.71078H208.155C224.197 8.71078 238.234 11.3383 250.265 16.5934C262.435 21.7103 271.908 29.6621 278.684 40.4488C285.461 51.2356 288.849 64.9266 288.849 81.5216C288.849 97.0103 285.53 110.148 278.892 120.935C272.254 131.722 262.781 139.95 250.473 145.62C238.165 151.152 223.575 153.918 206.703 153.918H149.45ZM195.709 113.467H206.703C215.139 113.467 221.846 112.361 226.825 110.148C231.941 107.935 235.675 104.478 238.026 99.7762C240.377 95.0742 241.553 88.9894 241.553 81.5216C241.553 72.8092 240.446 66.1712 238.234 61.6075C236.159 56.9056 232.564 53.6557 227.447 51.8579C222.33 50.0602 215.416 49.1612 206.703 49.1612H195.709V113.467Z" fill="#47B4C7"/>
<path d="M43.3546 153.918V49.1612H0V8.71078H132.76V49.1612H89.6133V153.918H43.3546Z" fill="#47B4C7"/>
</svg>
